<?xml version="1.0" encoding="utf-8"?>
<!-- Generator: Adobe Illustrator 26.3.1, SVG Export Plug-In . SVG Version: 6.00 Build 0)  -->
<svg version="1.1" id="Layer_1" xmlns="http://www.w3.org/2000/svg" xmlns:xlink="http://www.w3.org/1999/xlink" x="0px" y="0px"
	 viewBox="0 0 59.39 30.76" style="enable-background:new 0 0 59.39 30.76;" xml:space="preserve">
<style type="text/css">
	.st0{fill:#FFFFFF;}
	.st1{fill:#010202;}
	.st2{fill:#00826D;}
</style>
<g>
	<path class="st0" d="M11.32,18.97h0.64v2.91h-0.63l-1.08-1.72v1.72H9.61v-2.91h0.65l1.07,1.69V18.97z M17.23,18.9v-2.91h-0.77
		l-0.68,1.83l-0.67-1.83h-0.8v2.91h0.64v-1.65l0.59,1.61H16l0.59-1.59v1.63H17.23z M25.16,8.88v1.77c0,0.27-0.09,0.59-0.51,0.59
		c-0.42,0-0.51-0.32-0.51-0.59V8.88H23.5v1.78c0,0.73,0.44,1.19,1.16,1.19c0.73,0,1.16-0.44,1.16-1.19V8.88H25.16z M20.85,13.3
		c0.2,0.14,0.32,0.37,0.32,0.63c0,0.29-0.11,0.52-0.31,0.68c-0.23,0.18-0.51,0.2-0.78,0.2h-1.17v-2.92h1.17
		c0.29,0,0.51,0.05,0.68,0.16c0.22,0.14,0.35,0.4,0.35,0.66C21.11,12.9,21.04,13.15,20.85,13.3z M19.55,13.01h0.56
		c0.31,0,0.34-0.15,0.34-0.27c0-0.18-0.12-0.28-0.35-0.28h-0.55V13.01z M20.51,13.91c0-0.08,0-0.33-0.4-0.33h-0.56v0.62h0.55
		C20.25,14.2,20.51,14.16,20.51,13.91z M23.67,17.15H20.2v-1.16h-0.63v1.16h-1.16v0.63h1.16v3.47h-6.19v0.63h6.58
		c0.13,0,0.24-0.11,0.24-0.24v-3.86h3.86c0.13,0,0.24-0.11,0.24-0.24v-4.64h-0.63V17.15z M15.42,14.8h0.63v-1.17h1.17v-0.63h-1.17
		V9.54h6.03V8.91h-6.42c-0.13,0-0.24,0.11-0.24,0.24v3.86h-3.86c-0.13,0-0.24,0.11-0.24,0.24v4.54h0.63v-4.15h3.47V14.8z"/>
	<g>
		<path class="st0" d="M30.9,12.84l-0.93-1.43v1.43h-0.32v-1.88h0.41l0.86,1.34v-1.34h0.32v1.88H30.9z"/>
		<path class="st0" d="M32.93,12.2c0,0.4-0.28,0.69-0.67,0.69c-0.38,0-0.67-0.29-0.67-0.69c0-0.4,0.28-0.69,0.67-0.69
			C32.65,11.51,32.93,11.8,32.93,12.2z M32.62,12.2c0-0.27-0.17-0.41-0.36-0.41c-0.19,0-0.36,0.14-0.36,0.41s0.17,0.41,0.36,0.41
			C32.45,12.61,32.62,12.47,32.62,12.2z"/>
		<path class="st0" d="M34.02,11.86c-0.04-0.01-0.07-0.01-0.1-0.01c-0.24,0-0.35,0.14-0.35,0.38v0.62h-0.31v-1.29h0.3v0.21
			c0.06-0.14,0.2-0.22,0.37-0.22c0.04,0,0.07,0.01,0.08,0.01V11.86z"/>
		<path class="st0" d="M35.44,12.48c-0.07,0.23-0.27,0.41-0.58,0.41c-0.35,0-0.66-0.25-0.66-0.69c0-0.41,0.3-0.68,0.63-0.68
			c0.4,0,0.63,0.26,0.63,0.67c0,0.05,0,0.09-0.01,0.1H34.5c0.01,0.2,0.16,0.34,0.35,0.34c0.19,0,0.28-0.1,0.32-0.23L35.44,12.48z
			 M35.14,12.06c-0.01-0.15-0.11-0.29-0.32-0.29c-0.19,0-0.31,0.15-0.32,0.29H35.14z"/>
		<path class="st0" d="M35.97,12.84c0.02,0.16,0.15,0.28,0.32,0.28c0.24,0,0.37-0.12,0.37-0.39V12.6c-0.06,0.1-0.19,0.19-0.38,0.19
			c-0.34,0-0.6-0.27-0.6-0.63c0-0.35,0.24-0.63,0.6-0.63c0.2,0,0.33,0.08,0.38,0.19v-0.16h0.3v1.17c0,0.35-0.18,0.67-0.66,0.67
			c-0.34,0-0.58-0.21-0.62-0.47L35.97,12.84z M36.67,12.16c0-0.22-0.14-0.36-0.33-0.36c-0.2,0-0.34,0.14-0.34,0.36
			c0,0.23,0.13,0.37,0.34,0.37C36.54,12.52,36.67,12.38,36.67,12.16z"/>
		<path class="st0" d="M37.53,12.42c0.01,0.12,0.1,0.22,0.26,0.22c0.13,0,0.19-0.07,0.19-0.15c0-0.07-0.05-0.12-0.15-0.14
			l-0.19-0.04c-0.23-0.05-0.35-0.2-0.35-0.38c0-0.23,0.21-0.42,0.48-0.42c0.36,0,0.48,0.23,0.5,0.36l-0.26,0.07
			c-0.01-0.07-0.07-0.19-0.24-0.19c-0.11,0-0.19,0.07-0.19,0.15c0,0.07,0.05,0.12,0.13,0.14l0.2,0.04c0.24,0.05,0.37,0.2,0.37,0.39
			c0,0.2-0.16,0.41-0.49,0.41c-0.37,0-0.52-0.24-0.53-0.39L37.53,12.42z"/>
		<path class="st0" d="M39.32,12.84v-1.29h0.29v0.16c0.07-0.13,0.24-0.2,0.38-0.2c0.17,0,0.32,0.08,0.39,0.23
			c0.1-0.17,0.25-0.23,0.42-0.23c0.23,0,0.46,0.15,0.46,0.49v0.84h-0.3v-0.79c0-0.15-0.08-0.27-0.25-0.27
			c-0.16,0-0.27,0.13-0.27,0.29v0.77h-0.3v-0.79c0-0.15-0.07-0.27-0.25-0.27c-0.16,0-0.27,0.12-0.27,0.29v0.77H39.32z"/>
		<path class="st0" d="M41.82,10.9c0.11,0,0.2,0.09,0.2,0.2c0,0.11-0.09,0.2-0.2,0.2c-0.11,0-0.2-0.09-0.2-0.2
			C41.62,10.99,41.71,10.9,41.82,10.9z M41.67,12.84v-1.29h0.31v1.29H41.67z"/>
		<path class="st0" d="M42.4,12.84v-1.92h0.31v1.92H42.4z"/>
		<path class="st0" d="M43.14,11.55h0.31v1.42c0,0.24-0.15,0.41-0.38,0.41c-0.1,0-0.16-0.02-0.17-0.02v-0.25
			c0.01,0,0.06,0.01,0.09,0.01c0.12,0,0.16-0.06,0.16-0.17V11.55z M43.29,10.89c0.11,0,0.2,0.09,0.2,0.2c0,0.11-0.09,0.2-0.2,0.2
			c-0.11,0-0.2-0.09-0.2-0.2C43.09,10.98,43.18,10.89,43.29,10.89z"/>
		<path class="st0" d="M44.79,11.6l0.14-0.17l0.16,0.14l-0.14,0.17c0.1,0.12,0.17,0.28,0.17,0.46c0,0.4-0.28,0.69-0.67,0.69
			c-0.13,0-0.24-0.03-0.33-0.08l-0.13,0.17l-0.17-0.14l0.13-0.17c-0.11-0.12-0.17-0.28-0.17-0.47c0-0.4,0.28-0.69,0.67-0.69
			C44.57,11.51,44.69,11.54,44.79,11.6z M44.14,12.42l0.47-0.59c-0.05-0.02-0.11-0.04-0.16-0.04c-0.19,0-0.36,0.14-0.36,0.41
			C44.09,12.29,44.1,12.36,44.14,12.42z M44.81,12.2c0-0.08-0.02-0.16-0.05-0.22l-0.47,0.59c0.05,0.02,0.1,0.03,0.16,0.03
			C44.64,12.61,44.81,12.47,44.81,12.2z"/>
		<path class="st0" d="M45.37,12.2v-0.27h0.75v0.27H45.37z"/>
		<path class="st0" d="M48.27,12.2c0,0.4-0.28,0.69-0.67,0.69c-0.38,0-0.67-0.29-0.67-0.69c0-0.4,0.28-0.69,0.67-0.69
			C47.98,11.51,48.27,11.8,48.27,12.2z M47.95,12.2c0-0.27-0.17-0.41-0.36-0.41c-0.19,0-0.36,0.14-0.36,0.41s0.17,0.41,0.36,0.41
			C47.78,12.61,47.95,12.47,47.95,12.2z"/>
		<path class="st0" d="M48.79,12.84c0.02,0.16,0.15,0.28,0.32,0.28c0.24,0,0.37-0.12,0.37-0.39V12.6c-0.06,0.1-0.19,0.19-0.38,0.19
			c-0.34,0-0.6-0.27-0.6-0.63c0-0.35,0.24-0.63,0.6-0.63c0.2,0,0.33,0.08,0.38,0.19v-0.16h0.3v1.17c0,0.35-0.18,0.67-0.66,0.67
			c-0.34,0-0.58-0.21-0.62-0.47L48.79,12.84z M49.49,12.16c0-0.22-0.14-0.36-0.33-0.36c-0.2,0-0.34,0.14-0.34,0.36
			c0,0.23,0.13,0.37,0.34,0.37C49.35,12.52,49.49,12.38,49.49,12.16z"/>
		<path class="st0" d="M29.63,16.41v-1.92h0.3v0.79c0.06-0.1,0.21-0.19,0.41-0.19c0.39,0,0.6,0.29,0.6,0.67
			c0,0.39-0.23,0.69-0.61,0.69c-0.18,0-0.32-0.08-0.4-0.2v0.17H29.63z M30.28,15.36c-0.2,0-0.35,0.15-0.35,0.4
			c0,0.25,0.15,0.41,0.35,0.41c0.2,0,0.35-0.15,0.35-0.41C30.63,15.5,30.48,15.36,30.28,15.36z"/>
		<path class="st0" d="M31.42,14.46c0.11,0,0.2,0.09,0.2,0.2s-0.09,0.2-0.2,0.2c-0.11,0-0.2-0.09-0.2-0.2S31.31,14.46,31.42,14.46z
			 M31.27,16.41v-1.29h0.3v1.29H31.27z"/>
		<path class="st0" d="M33.24,15.76c0,0.4-0.28,0.69-0.67,0.69c-0.39,0-0.67-0.29-0.67-0.69c0-0.4,0.28-0.69,0.67-0.69
			C32.96,15.08,33.24,15.37,33.24,15.76z M32.93,15.76c0-0.27-0.17-0.41-0.36-0.41c-0.19,0-0.36,0.14-0.36,0.41s0.17,0.41,0.36,0.41
			C32.76,16.18,32.93,16.04,32.93,15.76z"/>
		<path class="st0" d="M34.19,16.41h-0.31l-0.53-1.29h0.34l0.34,0.92l0.33-0.92h0.32L34.19,16.41z"/>
		<path class="st0" d="M35.11,14.46c0.11,0,0.2,0.09,0.2,0.2s-0.09,0.2-0.2,0.2c-0.11,0-0.2-0.09-0.2-0.2S35,14.46,35.11,14.46z
			 M34.96,16.41v-1.29h0.31v1.29H34.96z"/>
		<path class="st0" d="M36.09,15.12h0.27v0.27h-0.27v0.6c0,0.11,0.05,0.16,0.16,0.16c0.04,0,0.09-0.01,0.11-0.01v0.25
			c-0.02,0.01-0.08,0.03-0.19,0.03c-0.24,0-0.39-0.14-0.39-0.38v-0.65h-0.24v-0.27h0.07c0.14,0,0.2-0.09,0.2-0.2v-0.19h0.28V15.12z"
			/>
		<path class="st0" d="M36.88,15.99c0.01,0.12,0.1,0.22,0.26,0.22c0.13,0,0.19-0.07,0.19-0.15c0-0.07-0.05-0.12-0.15-0.14
			l-0.19-0.04c-0.23-0.05-0.35-0.2-0.35-0.38c0-0.23,0.21-0.42,0.48-0.42c0.36,0,0.48,0.23,0.5,0.36l-0.26,0.07
			c-0.01-0.07-0.07-0.19-0.24-0.19c-0.11,0-0.19,0.07-0.19,0.15c0,0.07,0.05,0.12,0.13,0.14l0.2,0.04c0.24,0.05,0.37,0.2,0.37,0.39
			c0,0.2-0.16,0.41-0.49,0.41c-0.37,0-0.52-0.24-0.53-0.39L36.88,15.99z"/>
		<path class="st0" d="M38.65,15.67l0.54,0.75h-0.38l-0.38-0.53l-0.16,0.17v0.36h-0.31v-1.92h0.31v1.15l0.5-0.52h0.41L38.65,15.67z"
			/>
		<path class="st0" d="M39.72,15.67l0.33-0.05c0.07-0.01,0.1-0.05,0.1-0.09c0-0.11-0.07-0.2-0.24-0.2c-0.16,0-0.25,0.1-0.27,0.23
			l-0.28-0.06c0.02-0.22,0.23-0.42,0.54-0.42c0.4,0,0.55,0.23,0.55,0.48v0.64c0,0.12,0.01,0.19,0.02,0.21h-0.29
			c0-0.01-0.01-0.06-0.01-0.16c-0.06,0.1-0.19,0.2-0.4,0.2c-0.27,0-0.44-0.19-0.44-0.39C39.33,15.83,39.5,15.7,39.72,15.67z
			 M40.15,15.88v-0.06l-0.34,0.05c-0.09,0.02-0.17,0.07-0.17,0.18c0,0.09,0.07,0.17,0.19,0.17C40,16.21,40.15,16.13,40.15,15.88z"/>
		<path class="st0" d="M40.86,16.92v-1.8h0.3v0.18c0.06-0.11,0.21-0.2,0.41-0.2c0.38,0,0.6,0.29,0.6,0.67
			c0,0.39-0.24,0.68-0.61,0.68c-0.19,0-0.33-0.08-0.39-0.18v0.65H40.86z M41.51,15.36c-0.2,0-0.35,0.16-0.35,0.4
			c0,0.25,0.15,0.41,0.35,0.41c0.2,0,0.35-0.16,0.35-0.41C41.86,15.52,41.71,15.36,41.51,15.36z"/>
		<path class="st0" d="M42.49,16.41v-1.92h0.31v1.92H42.49z"/>
		<path class="st0" d="M44.38,16.04c-0.07,0.23-0.27,0.41-0.58,0.41c-0.35,0-0.66-0.25-0.66-0.69c0-0.41,0.3-0.68,0.63-0.68
			c0.4,0,0.63,0.26,0.63,0.67c0,0.05,0,0.09-0.01,0.1h-0.95c0.01,0.2,0.16,0.34,0.35,0.34c0.19,0,0.28-0.1,0.32-0.23L44.38,16.04z
			 M44.08,15.62c-0.01-0.15-0.11-0.29-0.32-0.29c-0.19,0-0.31,0.15-0.32,0.29H44.08z"/>
		<path class="st0" d="M44.91,16.41c0.02,0.16,0.15,0.28,0.32,0.28c0.24,0,0.37-0.12,0.37-0.39v-0.14c-0.06,0.1-0.19,0.19-0.38,0.19
			c-0.34,0-0.6-0.27-0.6-0.63c0-0.35,0.24-0.63,0.6-0.63c0.2,0,0.33,0.08,0.38,0.19v-0.16h0.3v1.17c0,0.34-0.18,0.67-0.66,0.67
			c-0.34,0-0.58-0.21-0.62-0.47L44.91,16.41z M45.61,15.72c0-0.22-0.14-0.36-0.33-0.36c-0.2,0-0.34,0.14-0.34,0.36
			c0,0.23,0.13,0.37,0.34,0.37C45.47,16.09,45.61,15.95,45.61,15.72z"/>
		<path class="st0" d="M47.46,16.04c-0.07,0.23-0.27,0.41-0.58,0.41c-0.35,0-0.66-0.25-0.66-0.69c0-0.41,0.3-0.68,0.63-0.68
			c0.4,0,0.63,0.26,0.63,0.67c0,0.05,0,0.09-0.01,0.1h-0.95c0.01,0.2,0.16,0.34,0.35,0.34c0.19,0,0.28-0.1,0.32-0.23L47.46,16.04z
			 M47.17,15.62c-0.01-0.15-0.11-0.29-0.32-0.29c-0.19,0-0.31,0.15-0.32,0.29H47.17z"/>
		<path class="st0" d="M30.11,20.02c-0.31,0-0.49-0.23-0.49-0.51v-0.82h0.31v0.76c0,0.16,0.07,0.29,0.26,0.29
			c0.18,0,0.27-0.12,0.27-0.29v-0.76h0.31v1.06c0,0.11,0.01,0.19,0.01,0.24h-0.29c-0.01-0.03-0.01-0.09-0.01-0.14
			C30.41,19.95,30.26,20.02,30.11,20.02z"/>
		<path class="st0" d="M31.5,19.98h-0.31v-1.29h0.3v0.17c0.08-0.15,0.24-0.21,0.38-0.21c0.32,0,0.47,0.23,0.47,0.51v0.82h-0.31
			v-0.76c0-0.16-0.07-0.29-0.27-0.29c-0.17,0-0.27,0.14-0.27,0.31V19.98z"/>
		<path class="st0" d="M32.9,18.03c0.11,0,0.2,0.09,0.2,0.2s-0.09,0.2-0.2,0.2c-0.11,0-0.2-0.09-0.2-0.2S32.79,18.03,32.9,18.03z
			 M32.75,19.98v-1.29h0.31v1.29H32.75z"/>
		<path class="st0" d="M34.15,19.98h-0.31l-0.53-1.29h0.34L34,19.61l0.33-0.92h0.32L34.15,19.98z"/>
		<path class="st0" d="M36.02,19.61c-0.07,0.23-0.27,0.41-0.58,0.41c-0.35,0-0.66-0.25-0.66-0.69c0-0.41,0.3-0.68,0.63-0.68
			c0.4,0,0.63,0.26,0.63,0.67c0,0.05,0,0.09-0.01,0.1h-0.95c0.01,0.2,0.16,0.34,0.35,0.34c0.19,0,0.28-0.1,0.32-0.23L36.02,19.61z
			 M35.72,19.19c-0.01-0.15-0.11-0.29-0.32-0.29c-0.19,0-0.31,0.15-0.32,0.29H35.72z"/>
		<path class="st0" d="M37.12,18.99c-0.04-0.01-0.07-0.01-0.1-0.01c-0.24,0-0.35,0.14-0.35,0.38v0.62h-0.31v-1.29h0.3v0.21
			c0.06-0.14,0.2-0.22,0.37-0.22c0.04,0,0.07,0,0.08,0.01V18.99z"/>
		<path class="st0" d="M37.57,19.55c0.01,0.12,0.1,0.22,0.26,0.22c0.13,0,0.19-0.07,0.19-0.15c0-0.07-0.05-0.12-0.15-0.14
			l-0.19-0.04c-0.23-0.05-0.35-0.2-0.35-0.38c0-0.23,0.21-0.42,0.48-0.42c0.36,0,0.48,0.23,0.5,0.36l-0.26,0.07
			c-0.01-0.07-0.07-0.19-0.24-0.19c-0.11,0-0.19,0.07-0.19,0.15c0,0.07,0.05,0.12,0.13,0.13l0.2,0.04c0.24,0.05,0.37,0.2,0.37,0.39
			c0,0.2-0.16,0.41-0.49,0.41c-0.37,0-0.52-0.24-0.53-0.39L37.57,19.55z"/>
		<path class="st0" d="M38.81,18.03c0.11,0,0.2,0.09,0.2,0.2s-0.09,0.2-0.2,0.2c-0.11,0-0.2-0.09-0.2-0.2S38.7,18.03,38.81,18.03z
			 M38.66,19.98v-1.29h0.31v1.29H38.66z"/>
		<path class="st0" d="M39.78,18.69h0.27v0.27h-0.27v0.6c0,0.11,0.05,0.16,0.16,0.16c0.04,0,0.09-0.01,0.11-0.01v0.25
			C40.03,19.97,39.98,20,39.86,20c-0.24,0-0.39-0.14-0.39-0.38v-0.65h-0.24v-0.27h0.07c0.14,0,0.2-0.09,0.2-0.2v-0.19h0.28V18.69z"
			/>
		<path class="st0" d="M41.53,19.61c-0.07,0.23-0.27,0.41-0.58,0.41c-0.35,0-0.66-0.25-0.66-0.69c0-0.41,0.3-0.68,0.63-0.68
			c0.4,0,0.63,0.26,0.63,0.67c0,0.05,0,0.09-0.01,0.1h-0.95c0.01,0.2,0.16,0.34,0.35,0.34c0.19,0,0.28-0.1,0.32-0.23L41.53,19.61z
			 M41.23,19.19c-0.01-0.15-0.11-0.29-0.32-0.29c-0.19,0-0.31,0.15-0.32,0.29H41.23z"/>
		<path class="st0" d="M42.26,18.69h0.27v0.27h-0.27v0.6c0,0.11,0.05,0.16,0.16,0.16c0.04,0,0.09-0.01,0.11-0.01v0.25
			C42.52,19.97,42.46,20,42.35,20c-0.24,0-0.39-0.14-0.39-0.38v-0.65h-0.24v-0.27h0.07c0.14,0,0.2-0.09,0.2-0.2v-0.19h0.28V18.69z"
			/>
	</g>
</g>
</svg>
