<?xml version="1.0" encoding="utf-8"?>
<!-- Generator: Adobe Illustrator 26.3.1, SVG Export Plug-In . SVG Version: 6.00 Build 0)  -->
<svg version="1.1" id="Layer_1" xmlns="http://www.w3.org/2000/svg" xmlns:xlink="http://www.w3.org/1999/xlink" x="0px" y="0px"
	 viewBox="0 0 59.39 30.76" style="enable-background:new 0 0 59.39 30.76;" xml:space="preserve">
<style type="text/css">
	.st0{fill:#FFFFFF;}
	.st1{fill:#008571;}
</style>
<g>
	<path class="st0" d="M13.38,18.85h0.64v2.91h-0.63l-1.08-1.72v1.72h-0.64v-2.91h0.65l1.07,1.69V18.85z M19.28,18.78v-2.91h-0.77
		l-0.68,1.83l-0.67-1.83h-0.8v2.91h0.64v-1.65l0.59,1.61h0.47l0.59-1.59v1.63H19.28z M27.22,8.76v1.77c0,0.27-0.09,0.59-0.51,0.59
		c-0.42,0-0.51-0.32-0.51-0.59V8.76h-0.65v1.78c0,0.73,0.44,1.19,1.16,1.19c0.73,0,1.16-0.44,1.16-1.19V8.76H27.22z M22.9,13.17
		c0.2,0.14,0.32,0.37,0.32,0.63c0,0.29-0.11,0.52-0.31,0.68c-0.23,0.18-0.51,0.2-0.78,0.2h-1.17v-2.92h1.17
		c0.29,0,0.51,0.05,0.68,0.16c0.22,0.14,0.35,0.4,0.35,0.66C23.17,12.78,23.09,13.02,22.9,13.17z M21.61,12.89h0.56
		c0.31,0,0.34-0.15,0.34-0.27c0-0.18-0.12-0.28-0.35-0.28h-0.55V12.89z M22.56,13.79c0-0.08,0-0.33-0.4-0.33h-0.56v0.62h0.55
		C22.31,14.08,22.56,14.04,22.56,13.79z M25.72,17.03h-3.47v-1.16h-0.63v1.16h-1.16v0.63h1.16v3.47h-6.19v0.63h6.58
		c0.13,0,0.24-0.11,0.24-0.24v-3.86h3.86c0.13,0,0.24-0.11,0.24-0.24v-4.64h-0.63V17.03z M17.48,14.68h0.63v-1.17h1.17v-0.63h-1.17
		V9.41h6.03V8.78h-6.42c-0.13,0-0.24,0.11-0.24,0.24v3.86h-3.86c-0.13,0-0.24,0.11-0.24,0.24v4.54h0.63v-4.15h3.47V14.68z"/>
	<g>
		<g>
			<path class="st0" d="M32.96,12.72l-0.93-1.43v1.43h-0.32v-1.88h0.41l0.86,1.34v-1.34h0.32v1.88H32.96z"/>
			<path class="st0" d="M34.98,12.07c0,0.4-0.28,0.69-0.67,0.69c-0.38,0-0.67-0.29-0.67-0.69c0-0.4,0.28-0.69,0.67-0.69
				C34.7,11.39,34.98,11.68,34.98,12.07z M34.67,12.07c0-0.27-0.17-0.41-0.36-0.41c-0.19,0-0.36,0.14-0.36,0.41s0.17,0.41,0.36,0.41
				C34.5,12.48,34.67,12.34,34.67,12.07z"/>
			<path class="st0" d="M36.07,11.73c-0.04-0.01-0.07-0.01-0.1-0.01c-0.24,0-0.35,0.14-0.35,0.38v0.62h-0.31v-1.29h0.3v0.21
				c0.06-0.14,0.2-0.22,0.37-0.22c0.04,0,0.07,0.01,0.08,0.01V11.73z"/>
			<path class="st0" d="M37.44,11.43l0.3,0.89L38,11.43h0.31l-0.41,1.29h-0.31l-0.32-0.93l-0.31,0.93h-0.32l-0.42-1.29h0.33
				l0.26,0.89l0.3-0.89H37.44z"/>
			<path class="st0" d="M39.7,12.35c-0.07,0.23-0.27,0.41-0.58,0.41c-0.35,0-0.66-0.25-0.66-0.69c0-0.41,0.3-0.68,0.63-0.68
				c0.4,0,0.63,0.26,0.63,0.67c0,0.05,0,0.09-0.01,0.1h-0.95c0.01,0.2,0.16,0.34,0.35,0.34c0.19,0,0.28-0.1,0.32-0.23L39.7,12.35z
				 M39.4,11.93c-0.01-0.15-0.11-0.29-0.32-0.29c-0.19,0-0.31,0.15-0.32,0.29H39.4z"/>
			<path class="st0" d="M40.23,12.72c0.02,0.16,0.15,0.28,0.32,0.28c0.24,0,0.37-0.12,0.37-0.39v-0.14
				c-0.06,0.1-0.19,0.19-0.38,0.19c-0.34,0-0.6-0.27-0.6-0.63c0-0.35,0.24-0.63,0.6-0.63c0.2,0,0.33,0.08,0.38,0.19v-0.16h0.3v1.17
				c0,0.35-0.18,0.67-0.66,0.67c-0.34,0-0.58-0.21-0.62-0.47L40.23,12.72z M40.93,12.03c0-0.22-0.14-0.36-0.33-0.36
				c-0.2,0-0.34,0.14-0.34,0.36c0,0.23,0.13,0.37,0.34,0.37C40.8,12.4,40.93,12.25,40.93,12.03z"/>
			<path class="st0" d="M41.79,10.77c0.11,0,0.2,0.09,0.2,0.2c0,0.11-0.09,0.2-0.2,0.2c-0.11,0-0.2-0.09-0.2-0.2
				C41.59,10.86,41.68,10.77,41.79,10.77z M41.64,12.72v-1.29h0.31v1.29H41.64z"/>
			<path class="st0" d="M42.68,11.98l0.33-0.05c0.07-0.01,0.1-0.05,0.1-0.09c0-0.11-0.07-0.2-0.24-0.2c-0.16,0-0.25,0.1-0.27,0.23
				l-0.28-0.06c0.02-0.22,0.23-0.42,0.54-0.42c0.4,0,0.55,0.23,0.55,0.48v0.64c0,0.12,0.01,0.19,0.02,0.21h-0.29
				c0-0.01-0.01-0.06-0.01-0.16c-0.06,0.1-0.19,0.2-0.4,0.2c-0.27,0-0.44-0.19-0.44-0.39C42.29,12.14,42.46,12.01,42.68,11.98z
				 M43.11,12.18v-0.06l-0.34,0.05c-0.09,0.02-0.17,0.07-0.17,0.18c0,0.09,0.07,0.17,0.19,0.17C42.96,12.52,43.11,12.43,43.11,12.18
				z"/>
			<path class="st0" d="M44.13,12.72h-0.31v-1.29h0.3v0.17c0.08-0.15,0.24-0.21,0.38-0.21c0.32,0,0.47,0.23,0.47,0.51v0.82h-0.31
				v-0.76c0-0.16-0.07-0.29-0.27-0.29c-0.18,0-0.27,0.14-0.27,0.31V12.72z"/>
			<path class="st0" d="M31.69,15.63V14.4H32v1.21c0,0.27,0.15,0.41,0.38,0.41c0.24,0,0.39-0.15,0.39-0.41V14.4h0.32v1.23
				c0,0.45-0.31,0.7-0.7,0.7C32,16.33,31.69,16.09,31.69,15.63z"/>
			<path class="st0" d="M33.82,16.29h-0.31v-1.29h0.3v0.17c0.08-0.15,0.24-0.21,0.38-0.21c0.32,0,0.47,0.23,0.47,0.51v0.82h-0.31
				v-0.76c0-0.16-0.07-0.29-0.26-0.29c-0.18,0-0.27,0.14-0.27,0.31V16.29z"/>
			<path class="st0" d="M35.22,14.34c0.11,0,0.2,0.09,0.2,0.2s-0.09,0.2-0.2,0.2c-0.11,0-0.2-0.09-0.2-0.2S35.12,14.34,35.22,14.34z
				 M35.07,16.29v-1.29h0.31v1.29H35.07z"/>
			<path class="st0" d="M36.47,16.29h-0.31l-0.53-1.29h0.34l0.34,0.92l0.33-0.92h0.32L36.47,16.29z"/>
			<path class="st0" d="M38.34,15.92c-0.07,0.23-0.27,0.41-0.58,0.41c-0.35,0-0.66-0.25-0.66-0.69c0-0.41,0.3-0.68,0.63-0.68
				c0.4,0,0.63,0.26,0.63,0.67c0,0.05,0,0.09-0.01,0.1H37.4c0.01,0.2,0.16,0.34,0.35,0.34c0.19,0,0.28-0.1,0.32-0.23L38.34,15.92z
				 M38.04,15.5c-0.01-0.15-0.11-0.29-0.32-0.29c-0.19,0-0.31,0.15-0.32,0.29H38.04z"/>
			<path class="st0" d="M39.44,15.3c-0.04-0.01-0.07-0.01-0.1-0.01c-0.24,0-0.35,0.14-0.35,0.38v0.62h-0.31v-1.29h0.3v0.21
				c0.06-0.14,0.2-0.22,0.37-0.22c0.04,0,0.07,0.01,0.08,0.01V15.3z"/>
			<path class="st0" d="M39.89,15.86c0.01,0.12,0.1,0.22,0.26,0.22c0.13,0,0.19-0.07,0.19-0.15c0-0.07-0.05-0.12-0.15-0.14L40,15.75
				c-0.23-0.05-0.35-0.2-0.35-0.38c0-0.23,0.21-0.42,0.48-0.42c0.36,0,0.48,0.23,0.5,0.36l-0.26,0.07
				c-0.01-0.07-0.07-0.19-0.24-0.19c-0.11,0-0.19,0.07-0.19,0.15c0,0.07,0.05,0.12,0.13,0.14l0.2,0.04c0.24,0.05,0.37,0.2,0.37,0.39
				c0,0.2-0.16,0.41-0.49,0.41c-0.37,0-0.52-0.24-0.53-0.39L39.89,15.86z"/>
			<path class="st0" d="M41.13,14.34c0.11,0,0.2,0.09,0.2,0.2s-0.09,0.2-0.2,0.2c-0.11,0-0.2-0.09-0.2-0.2S41.02,14.34,41.13,14.34z
				 M40.98,16.29v-1.29h0.31v1.29H40.98z"/>
			<path class="st0" d="M42.1,14.99h0.27v0.27H42.1v0.6c0,0.11,0.05,0.16,0.16,0.16c0.04,0,0.09-0.01,0.11-0.01v0.25
				c-0.02,0.01-0.08,0.03-0.19,0.03c-0.24,0-0.39-0.14-0.39-0.38v-0.65h-0.24v-0.27h0.07c0.14,0,0.2-0.09,0.2-0.2V14.6h0.28V14.99z"
				/>
			<path class="st0" d="M42.8,16.81l0.31-0.68l-0.55-1.14h0.35l0.37,0.82l0.35-0.82h0.33l-0.82,1.82H42.8z"/>
			<path class="st0" d="M46.15,15.64c0,0.4-0.28,0.69-0.67,0.69c-0.38,0-0.67-0.29-0.67-0.69c0-0.4,0.28-0.69,0.67-0.69
				C45.86,14.95,46.15,15.24,46.15,15.64z M45.84,15.64c0-0.27-0.17-0.41-0.36-0.41c-0.19,0-0.36,0.14-0.36,0.41
				s0.17,0.41,0.36,0.41C45.67,16.05,45.84,15.91,45.84,15.64z"/>
			<path class="st0" d="M46.86,14.82v0.17h0.3v0.27h-0.3v1.02h-0.31v-1.02h-0.23v-0.27h0.23v-0.18c0-0.29,0.19-0.46,0.45-0.46
				c0.08,0,0.14,0.02,0.16,0.03v0.26c-0.02-0.01-0.05-0.01-0.11-0.01C46.97,14.63,46.86,14.66,46.86,14.82z"/>
			<path class="st0" d="M31.71,19.85v-1.88h0.32v1.58h0.86v0.3H31.71z"/>
			<path class="st0" d="M33.34,17.9c0.11,0,0.2,0.09,0.2,0.2s-0.09,0.2-0.2,0.2c-0.11,0-0.2-0.09-0.2-0.2S33.23,17.9,33.34,17.9z
				 M33.19,19.85v-1.29h0.31v1.29H33.19z"/>
			<path class="st0" d="M34.31,18.39v0.17h0.3v0.27h-0.3v1.02H34v-1.02h-0.23v-0.27H34v-0.18c0-0.29,0.19-0.46,0.45-0.46
				c0.08,0,0.14,0.02,0.16,0.03v0.26c-0.02,0-0.05-0.01-0.11-0.01C34.41,18.19,34.31,18.23,34.31,18.39z"/>
			<path class="st0" d="M35.99,19.48c-0.07,0.23-0.27,0.41-0.58,0.41c-0.35,0-0.66-0.25-0.66-0.69c0-0.41,0.3-0.68,0.63-0.68
				c0.4,0,0.63,0.26,0.63,0.67c0,0.05,0,0.09-0.01,0.1h-0.95c0.01,0.2,0.16,0.34,0.35,0.34c0.19,0,0.28-0.1,0.32-0.23L35.99,19.48z
				 M35.69,19.07c-0.01-0.15-0.11-0.29-0.32-0.29c-0.19,0-0.31,0.15-0.32,0.29H35.69z"/>
			<path class="st0" d="M38,18.5c-0.02-0.12-0.12-0.29-0.37-0.29c-0.19,0-0.32,0.13-0.32,0.27c0,0.12,0.07,0.21,0.22,0.24l0.27,0.06
				c0.33,0.07,0.51,0.28,0.51,0.54c0,0.29-0.24,0.57-0.67,0.57c-0.48,0-0.7-0.31-0.73-0.58l0.3-0.08c0.02,0.2,0.16,0.38,0.43,0.38
				c0.23,0,0.34-0.11,0.34-0.26c0-0.12-0.09-0.22-0.25-0.25l-0.27-0.06c-0.29-0.06-0.48-0.25-0.48-0.53c0-0.32,0.29-0.58,0.64-0.58
				c0.44,0,0.62,0.27,0.66,0.48L38,18.5z"/>
			<path class="st0" d="M38.84,19.21c0,0.26,0.17,0.41,0.36,0.41c0.2,0,0.29-0.14,0.32-0.24l0.27,0.1c-0.06,0.2-0.25,0.42-0.59,0.42
				c-0.38,0-0.67-0.29-0.67-0.69c0-0.4,0.29-0.69,0.66-0.69c0.35,0,0.54,0.22,0.59,0.42l-0.28,0.1c-0.03-0.11-0.12-0.24-0.31-0.24
				C39,18.81,38.84,18.95,38.84,19.21z"/>
			<path class="st0" d="M40.25,17.9c0.11,0,0.2,0.09,0.2,0.2s-0.09,0.2-0.2,0.2c-0.11,0-0.2-0.09-0.2-0.2S40.14,17.9,40.25,17.9z
				 M40.1,19.85v-1.29h0.31v1.29H40.1z"/>
			<path class="st0" d="M41.98,19.48c-0.07,0.23-0.27,0.41-0.58,0.41c-0.35,0-0.66-0.25-0.66-0.69c0-0.41,0.3-0.68,0.63-0.68
				c0.4,0,0.63,0.26,0.63,0.67c0,0.05,0,0.09-0.01,0.1h-0.95c0.01,0.2,0.16,0.34,0.35,0.34c0.19,0,0.28-0.1,0.32-0.23L41.98,19.48z
				 M41.68,19.07c-0.01-0.15-0.11-0.29-0.32-0.29c-0.19,0-0.31,0.15-0.32,0.29H41.68z"/>
			<path class="st0" d="M42.63,19.85h-0.31v-1.29h0.3v0.17c0.08-0.15,0.24-0.21,0.38-0.21c0.32,0,0.47,0.23,0.47,0.51v0.82h-0.31
				v-0.76c0-0.16-0.07-0.29-0.27-0.29c-0.18,0-0.27,0.14-0.27,0.31V19.85z"/>
			<path class="st0" d="M44.09,19.21c0,0.26,0.17,0.41,0.36,0.41c0.2,0,0.29-0.14,0.32-0.24l0.27,0.1c-0.06,0.2-0.25,0.42-0.59,0.42
				c-0.38,0-0.67-0.29-0.67-0.69c0-0.4,0.29-0.69,0.66-0.69c0.35,0,0.54,0.22,0.59,0.42l-0.28,0.1c-0.03-0.11-0.12-0.24-0.31-0.24
				C44.25,18.81,44.09,18.95,44.09,19.21z"/>
			<path class="st0" d="M46.48,19.48c-0.07,0.23-0.27,0.41-0.58,0.41c-0.35,0-0.66-0.25-0.66-0.69c0-0.41,0.3-0.68,0.63-0.68
				c0.4,0,0.63,0.26,0.63,0.67c0,0.05,0,0.09-0.01,0.1h-0.95c0.01,0.2,0.16,0.34,0.35,0.34c0.19,0,0.28-0.1,0.32-0.23L46.48,19.48z
				 M46.18,19.07c-0.01-0.15-0.11-0.29-0.32-0.29c-0.19,0-0.31,0.15-0.32,0.29H46.18z"/>
			<path class="st0" d="M46.98,19.43c0.01,0.12,0.1,0.22,0.26,0.22c0.13,0,0.19-0.07,0.19-0.15c0-0.07-0.05-0.12-0.15-0.14
				l-0.19-0.04c-0.23-0.05-0.35-0.2-0.35-0.38c0-0.23,0.21-0.42,0.48-0.42c0.36,0,0.48,0.23,0.5,0.36l-0.26,0.07
				c-0.01-0.07-0.07-0.19-0.24-0.19c-0.11,0-0.19,0.07-0.19,0.15c0,0.07,0.05,0.12,0.13,0.13l0.2,0.04c0.24,0.05,0.37,0.2,0.37,0.39
				c0,0.2-0.16,0.41-0.49,0.41c-0.37,0-0.52-0.24-0.53-0.39L46.98,19.43z"/>
		</g>
	</g>
</g>
</svg>
