<?xml version="1.0" encoding="utf-8"?>
<!-- Generator: Adobe Illustrator 26.3.1, SVG Export Plug-In . SVG Version: 6.00 Build 0)  -->
<svg version="1.1" id="Layer_1" xmlns="http://www.w3.org/2000/svg" xmlns:xlink="http://www.w3.org/1999/xlink" x="0px" y="0px"
	 viewBox="0 0 59.39 30.76" style="enable-background:new 0 0 59.39 30.76;" xml:space="preserve">
<style type="text/css">
	.st0{fill:#FFFFFF;}
	.st1{fill:#008571;}
</style>
<g>
	<path class="st1" d="M10.62,18.97h0.64v2.91h-0.63l-1.08-1.72v1.72H8.9v-2.91h0.65l1.07,1.69V18.97z M16.52,18.9v-2.91h-0.77
		l-0.68,1.83l-0.67-1.83h-0.8v2.91h0.64v-1.65l0.59,1.61h0.47l0.59-1.59v1.63H16.52z M24.46,8.88v1.77c0,0.27-0.09,0.59-0.51,0.59
		c-0.42,0-0.51-0.32-0.51-0.59V8.88h-0.65v1.78c0,0.73,0.44,1.19,1.16,1.19c0.73,0,1.16-0.44,1.16-1.19V8.88H24.46z M20.14,13.3
		c0.2,0.14,0.32,0.37,0.32,0.63c0,0.29-0.11,0.52-0.31,0.68c-0.23,0.18-0.51,0.2-0.78,0.2H18.2v-2.92h1.17
		c0.29,0,0.51,0.05,0.68,0.16c0.22,0.14,0.35,0.4,0.35,0.66C20.41,12.9,20.33,13.15,20.14,13.3z M18.85,13.01h0.56
		c0.31,0,0.34-0.15,0.34-0.27c0-0.18-0.12-0.28-0.35-0.28h-0.55V13.01z M19.8,13.91c0-0.08,0-0.33-0.4-0.33h-0.56v0.62h0.55
		C19.55,14.2,19.8,14.16,19.8,13.91z M22.96,17.15h-3.47v-1.16h-0.63v1.16H17.7v0.63h1.16v3.47h-6.19v0.63h6.58
		c0.13,0,0.24-0.11,0.24-0.24v-3.86h3.86c0.13,0,0.24-0.11,0.24-0.24v-4.64h-0.63V17.15z M14.72,14.8h0.63v-1.17h1.17v-0.63h-1.17
		V9.54h6.03V8.91h-6.42c-0.13,0-0.24,0.11-0.24,0.24v3.86h-3.86c-0.13,0-0.24,0.11-0.24,0.24v4.54h0.63v-4.15h3.47V14.8z"/>
	<g>
		<path d="M30.2,12.84l-0.93-1.43v1.43h-0.32v-1.88h0.41l0.85,1.33v-1.33h0.32v1.88H30.2z"/>
		<path d="M32.22,12.2c0,0.4-0.28,0.69-0.67,0.69c-0.39,0-0.67-0.29-0.67-0.69c0-0.4,0.28-0.69,0.67-0.69
			C31.94,11.51,32.22,11.8,32.22,12.2z M31.91,12.2c0-0.27-0.17-0.41-0.36-0.41c-0.19,0-0.36,0.14-0.36,0.41
			c0,0.27,0.17,0.41,0.36,0.41C31.74,12.61,31.91,12.47,31.91,12.2z"/>
		<path d="M33.31,11.86c-0.04-0.01-0.07-0.01-0.1-0.01c-0.24,0-0.35,0.14-0.35,0.38v0.62h-0.31v-1.29h0.3v0.21
			c0.06-0.14,0.2-0.22,0.37-0.22c0.04,0,0.07,0,0.08,0.01V11.86z"/>
		<path d="M33.78,12.84c0.02,0.16,0.15,0.28,0.32,0.28c0.24,0,0.37-0.12,0.37-0.39V12.6c-0.06,0.1-0.19,0.19-0.38,0.19
			c-0.34,0-0.6-0.26-0.6-0.63c0-0.34,0.24-0.63,0.6-0.63c0.2,0,0.33,0.08,0.38,0.19v-0.17h0.3v1.17c0,0.35-0.18,0.67-0.66,0.67
			c-0.34,0-0.58-0.21-0.62-0.47L33.78,12.84z M34.48,12.16c0-0.22-0.14-0.36-0.33-0.36c-0.2,0-0.34,0.14-0.34,0.36
			c0,0.23,0.13,0.37,0.34,0.37C34.34,12.52,34.48,12.38,34.48,12.16z"/>
		<path d="M36.33,12.47c-0.07,0.23-0.27,0.41-0.58,0.41c-0.35,0-0.66-0.25-0.66-0.69c0-0.41,0.3-0.68,0.63-0.68
			c0.4,0,0.63,0.26,0.63,0.67c0,0.05,0,0.09-0.01,0.1h-0.95c0.01,0.2,0.16,0.34,0.35,0.34c0.19,0,0.28-0.1,0.32-0.23L36.33,12.47z
			 M36.03,12.06c-0.01-0.15-0.11-0.29-0.32-0.29c-0.19,0-0.31,0.15-0.32,0.29H36.03z"/>
		<path d="M36.83,12.42c0.01,0.12,0.1,0.22,0.26,0.22c0.13,0,0.19-0.07,0.19-0.15c0-0.07-0.05-0.12-0.15-0.14l-0.19-0.04
			c-0.23-0.05-0.35-0.2-0.35-0.38c0-0.23,0.21-0.42,0.48-0.42c0.36,0,0.48,0.23,0.5,0.36l-0.26,0.07c-0.01-0.07-0.07-0.19-0.24-0.19
			c-0.11,0-0.19,0.07-0.19,0.15c0,0.07,0.05,0.12,0.13,0.14l0.2,0.04c0.24,0.05,0.37,0.2,0.37,0.39c0,0.2-0.16,0.41-0.49,0.41
			c-0.37,0-0.52-0.24-0.53-0.39L36.83,12.42z"/>
		<path d="M38.61,12.84v-1.29h0.29v0.17c0.07-0.13,0.24-0.2,0.38-0.2c0.17,0,0.32,0.08,0.39,0.23c0.1-0.17,0.25-0.23,0.42-0.23
			c0.23,0,0.46,0.15,0.46,0.49v0.84h-0.3v-0.79c0-0.15-0.08-0.27-0.25-0.27c-0.16,0-0.27,0.13-0.27,0.29v0.77h-0.3v-0.79
			c0-0.15-0.07-0.27-0.25-0.27c-0.16,0-0.27,0.12-0.27,0.29v0.77H38.61z"/>
		<path d="M41.11,10.9c0.11,0,0.2,0.09,0.2,0.2c0,0.11-0.09,0.2-0.2,0.2c-0.11,0-0.2-0.09-0.2-0.2C40.91,10.99,41,10.9,41.11,10.9z
			 M40.96,12.84v-1.29h0.31v1.29H40.96z"/>
		<path d="M41.7,12.84v-1.92H42v1.92H41.7z"/>
		<path d="M42.43,11.55h0.31v1.42c0,0.24-0.15,0.42-0.38,0.42c-0.1,0-0.16-0.02-0.17-0.02v-0.25c0.01,0,0.06,0.01,0.09,0.01
			c0.12,0,0.16-0.06,0.16-0.17V11.55z M42.58,10.89c0.11,0,0.2,0.09,0.2,0.2c0,0.11-0.09,0.2-0.2,0.2c-0.11,0-0.2-0.09-0.2-0.2
			C42.39,10.98,42.48,10.89,42.58,10.89z"/>
		<path d="M44.08,11.6l0.14-0.17l0.16,0.14l-0.14,0.17c0.1,0.12,0.17,0.28,0.17,0.46c0,0.4-0.28,0.69-0.67,0.69
			c-0.13,0-0.24-0.03-0.33-0.08l-0.13,0.17l-0.17-0.13l0.13-0.17c-0.11-0.12-0.17-0.28-0.17-0.47c0-0.4,0.28-0.69,0.67-0.69
			C43.87,11.51,43.98,11.54,44.08,11.6z M43.43,12.42l0.47-0.59c-0.05-0.02-0.11-0.04-0.16-0.04c-0.19,0-0.36,0.14-0.36,0.41
			C43.38,12.29,43.4,12.36,43.43,12.42z M44.1,12.2c0-0.08-0.02-0.16-0.05-0.22l-0.47,0.59c0.05,0.02,0.1,0.03,0.16,0.03
			C43.93,12.61,44.1,12.47,44.1,12.2z"/>
		<path d="M44.66,12.2v-0.27h0.75v0.27H44.66z"/>
		<path d="M47.56,12.2c0,0.4-0.28,0.69-0.67,0.69c-0.38,0-0.67-0.29-0.67-0.69c0-0.4,0.28-0.69,0.67-0.69
			C47.27,11.51,47.56,11.8,47.56,12.2z M47.25,12.2c0-0.27-0.17-0.41-0.36-0.41c-0.19,0-0.36,0.14-0.36,0.41
			c0,0.27,0.17,0.41,0.36,0.41C47.08,12.61,47.25,12.47,47.25,12.2z"/>
		<path d="M48.08,12.84c0.02,0.16,0.15,0.28,0.32,0.28c0.24,0,0.37-0.12,0.37-0.39V12.6c-0.06,0.1-0.19,0.19-0.38,0.19
			c-0.34,0-0.6-0.26-0.6-0.63c0-0.34,0.24-0.63,0.6-0.63c0.2,0,0.33,0.08,0.38,0.19v-0.17h0.3v1.17c0,0.35-0.18,0.67-0.66,0.67
			c-0.34,0-0.58-0.21-0.62-0.47L48.08,12.84z M48.78,12.16c0-0.22-0.14-0.36-0.33-0.36c-0.2,0-0.34,0.14-0.34,0.36
			c0,0.23,0.13,0.37,0.34,0.37C48.64,12.52,48.78,12.38,48.78,12.16z"/>
		<path d="M28.92,16.41v-1.92h0.3v0.79c0.06-0.1,0.21-0.19,0.41-0.19c0.39,0,0.6,0.29,0.6,0.67c0,0.39-0.23,0.69-0.61,0.69
			c-0.18,0-0.32-0.08-0.4-0.21v0.17H28.92z M29.57,15.36c-0.2,0-0.35,0.15-0.35,0.4c0,0.25,0.15,0.41,0.35,0.41
			c0.2,0,0.35-0.15,0.35-0.41C29.92,15.5,29.77,15.36,29.57,15.36z"/>
		<path d="M30.71,14.46c0.11,0,0.2,0.09,0.2,0.2s-0.09,0.2-0.2,0.2c-0.11,0-0.2-0.09-0.2-0.2S30.6,14.46,30.71,14.46z M30.56,16.41
			v-1.29h0.31v1.29H30.56z"/>
		<path d="M32.53,15.76c0,0.4-0.28,0.69-0.67,0.69c-0.39,0-0.67-0.29-0.67-0.69c0-0.4,0.28-0.68,0.67-0.68
			C32.25,15.08,32.53,15.37,32.53,15.76z M32.22,15.76c0-0.27-0.17-0.41-0.36-0.41c-0.19,0-0.36,0.14-0.36,0.41
			c0,0.27,0.17,0.41,0.36,0.41C32.05,16.18,32.22,16.04,32.22,15.76z"/>
		<path d="M33.49,16.41h-0.31l-0.53-1.29h0.34l0.34,0.92l0.33-0.92h0.32L33.49,16.41z"/>
		<path d="M34.4,14.46c0.11,0,0.2,0.09,0.2,0.2s-0.09,0.2-0.2,0.2c-0.11,0-0.2-0.09-0.2-0.2S34.29,14.46,34.4,14.46z M34.25,16.41
			v-1.29h0.31v1.29H34.25z"/>
		<path d="M35.38,15.12h0.27v0.27h-0.27v0.6c0,0.11,0.05,0.16,0.16,0.16c0.04,0,0.09-0.01,0.11-0.01v0.25
			c-0.02,0.01-0.08,0.03-0.19,0.03c-0.24,0-0.39-0.14-0.39-0.38v-0.65h-0.24v-0.27h0.07c0.14,0,0.2-0.09,0.2-0.2v-0.19h0.28V15.12z"
			/>
		<path d="M37.12,16.04c-0.07,0.23-0.27,0.41-0.58,0.41c-0.35,0-0.66-0.25-0.66-0.69c0-0.41,0.3-0.68,0.63-0.68
			c0.4,0,0.63,0.26,0.63,0.67c0,0.05,0,0.09-0.01,0.1h-0.95c0.01,0.2,0.16,0.34,0.35,0.34c0.19,0,0.28-0.1,0.32-0.23L37.12,16.04z
			 M36.83,15.62c-0.01-0.15-0.11-0.29-0.32-0.29c-0.19,0-0.31,0.15-0.32,0.29H36.83z"/>
		<path d="M37.78,16.41h-0.31v-1.29h0.3v0.17c0.08-0.15,0.24-0.21,0.38-0.21c0.32,0,0.47,0.23,0.47,0.51v0.82h-0.31v-0.76
			c0-0.16-0.07-0.29-0.27-0.29c-0.18,0-0.27,0.14-0.27,0.31V16.41z"/>
		<path d="M39.18,15.99c0.01,0.12,0.1,0.22,0.26,0.22c0.13,0,0.19-0.07,0.19-0.15c0-0.07-0.05-0.12-0.15-0.14l-0.19-0.04
			c-0.23-0.05-0.35-0.2-0.35-0.38c0-0.23,0.21-0.42,0.48-0.42c0.36,0,0.48,0.23,0.5,0.36l-0.26,0.07c-0.01-0.07-0.07-0.19-0.24-0.19
			c-0.11,0-0.19,0.07-0.19,0.15c0,0.07,0.05,0.12,0.13,0.13l0.2,0.04c0.24,0.05,0.37,0.2,0.37,0.39c0,0.2-0.16,0.42-0.49,0.42
			c-0.37,0-0.52-0.25-0.53-0.39L39.18,15.99z"/>
		<path d="M40.95,15.67l0.54,0.75h-0.38l-0.38-0.53l-0.16,0.17v0.36h-0.31v-1.92h0.31v1.15l0.5-0.52h0.41L40.95,15.67z"/>
		<path d="M42.03,15.67l0.33-0.05c0.07-0.01,0.1-0.05,0.1-0.09c0-0.11-0.07-0.2-0.24-0.2c-0.16,0-0.25,0.1-0.27,0.23l-0.28-0.06
			c0.02-0.22,0.23-0.42,0.54-0.42c0.4,0,0.55,0.23,0.55,0.48v0.64c0,0.12,0.01,0.19,0.02,0.21h-0.29c0-0.01-0.01-0.06-0.01-0.17
			c-0.06,0.1-0.19,0.21-0.4,0.21c-0.27,0-0.44-0.19-0.44-0.39C41.63,15.83,41.8,15.7,42.03,15.67z M42.45,15.88v-0.06l-0.34,0.05
			c-0.09,0.02-0.17,0.07-0.17,0.18c0,0.09,0.07,0.17,0.19,0.17C42.3,16.21,42.45,16.13,42.45,15.88z"/>
		<path d="M43.16,16.92v-1.8h0.3v0.17c0.06-0.11,0.21-0.2,0.41-0.2c0.38,0,0.6,0.29,0.6,0.67c0,0.39-0.24,0.68-0.61,0.68
			c-0.19,0-0.33-0.08-0.39-0.18v0.65H43.16z M43.81,15.36c-0.2,0-0.35,0.16-0.35,0.4c0,0.25,0.15,0.41,0.35,0.41
			c0.2,0,0.35-0.16,0.35-0.41C44.16,15.52,44.02,15.36,43.81,15.36z"/>
		<path d="M45.94,16.04c-0.07,0.23-0.27,0.41-0.58,0.41c-0.35,0-0.66-0.25-0.66-0.69c0-0.41,0.3-0.68,0.63-0.68
			c0.4,0,0.63,0.26,0.63,0.67c0,0.05,0,0.09-0.01,0.1H45c0.01,0.2,0.16,0.34,0.35,0.34c0.19,0,0.28-0.1,0.32-0.23L45.94,16.04z
			 M45.65,15.62c-0.01-0.15-0.11-0.29-0.32-0.29c-0.19,0-0.31,0.15-0.32,0.29H45.65z"/>
		<path d="M46.29,16.41v-1.92h0.31v1.92H46.29z"/>
		<path d="M47.17,14.46c0.11,0,0.2,0.09,0.2,0.2s-0.09,0.2-0.2,0.2c-0.11,0-0.2-0.09-0.2-0.2S47.07,14.46,47.17,14.46z M47.02,16.41
			v-1.29h0.31v1.29H47.02z"/>
		<path d="M47.95,16.41c0.02,0.16,0.15,0.28,0.32,0.28c0.24,0,0.37-0.12,0.37-0.39v-0.14c-0.06,0.1-0.19,0.19-0.38,0.19
			c-0.34,0-0.6-0.27-0.6-0.63c0-0.35,0.24-0.63,0.6-0.63c0.2,0,0.33,0.08,0.38,0.19v-0.16h0.3v1.17c0,0.34-0.18,0.67-0.66,0.67
			c-0.34,0-0.58-0.21-0.62-0.47L47.95,16.41z M48.65,15.72c0-0.22-0.14-0.36-0.33-0.36c-0.2,0-0.34,0.14-0.34,0.36
			c0,0.23,0.13,0.37,0.34,0.37C48.51,16.09,48.65,15.95,48.65,15.72z"/>
		<path d="M50.5,16.04c-0.07,0.23-0.27,0.41-0.58,0.41c-0.35,0-0.66-0.25-0.66-0.69c0-0.41,0.3-0.68,0.63-0.68
			c0.4,0,0.63,0.26,0.63,0.67c0,0.05,0,0.09-0.01,0.1h-0.95c0.01,0.2,0.16,0.34,0.35,0.34c0.19,0,0.28-0.1,0.32-0.23L50.5,16.04z
			 M50.21,15.62c-0.01-0.15-0.11-0.29-0.32-0.29c-0.19,0-0.31,0.15-0.32,0.29H50.21z"/>
		<path d="M29.4,20.02c-0.31,0-0.49-0.23-0.49-0.51v-0.82h0.31v0.76c0,0.16,0.07,0.29,0.26,0.29c0.18,0,0.27-0.12,0.27-0.29v-0.76
			h0.31v1.06c0,0.11,0.01,0.19,0.01,0.24h-0.29c-0.01-0.03-0.01-0.09-0.01-0.14C29.7,19.95,29.55,20.02,29.4,20.02z"/>
		<path d="M30.8,19.98h-0.31v-1.29h0.3v0.17c0.08-0.15,0.24-0.21,0.38-0.21c0.32,0,0.47,0.23,0.47,0.51v0.82h-0.31v-0.76
			c0-0.16-0.07-0.29-0.27-0.29c-0.18,0-0.27,0.14-0.27,0.31V19.98z"/>
		<path d="M32.2,18.03c0.11,0,0.2,0.09,0.2,0.2s-0.09,0.2-0.2,0.2c-0.11,0-0.2-0.09-0.2-0.2S32.09,18.03,32.2,18.03z M32.04,19.98
			v-1.29h0.31v1.29H32.04z"/>
		<path d="M33.44,19.98h-0.31l-0.53-1.29h0.34l0.34,0.92l0.33-0.92h0.32L33.44,19.98z"/>
		<path d="M35.31,19.61c-0.07,0.23-0.27,0.41-0.58,0.41c-0.35,0-0.66-0.25-0.66-0.69c0-0.41,0.3-0.68,0.63-0.68
			c0.4,0,0.63,0.26,0.63,0.67c0,0.05,0,0.09-0.01,0.1h-0.95c0.01,0.2,0.16,0.34,0.35,0.34c0.19,0,0.28-0.1,0.32-0.23L35.31,19.61z
			 M35.02,19.19c-0.01-0.15-0.11-0.29-0.32-0.29c-0.19,0-0.31,0.15-0.32,0.29H35.02z"/>
		<path d="M36.41,18.99c-0.04-0.01-0.07-0.01-0.1-0.01c-0.24,0-0.35,0.14-0.35,0.38v0.62h-0.31v-1.29h0.3v0.21
			c0.06-0.14,0.2-0.22,0.37-0.22c0.04,0,0.07,0,0.08,0.01V18.99z"/>
		<path d="M36.86,19.55c0.01,0.12,0.1,0.22,0.26,0.22c0.13,0,0.19-0.07,0.19-0.15c0-0.07-0.05-0.12-0.15-0.14l-0.19-0.04
			c-0.23-0.05-0.35-0.2-0.35-0.38c0-0.23,0.21-0.42,0.48-0.42c0.36,0,0.48,0.23,0.5,0.36l-0.26,0.07c-0.01-0.07-0.07-0.19-0.24-0.19
			c-0.11,0-0.19,0.07-0.19,0.15c0,0.07,0.05,0.12,0.13,0.13l0.2,0.04c0.24,0.05,0.37,0.2,0.37,0.39c0,0.2-0.16,0.41-0.49,0.41
			c-0.37,0-0.52-0.24-0.53-0.39L36.86,19.55z"/>
		<path d="M38.1,18.03c0.11,0,0.2,0.09,0.2,0.2s-0.09,0.2-0.2,0.2c-0.11,0-0.2-0.09-0.2-0.2S37.99,18.03,38.1,18.03z M37.95,19.98
			v-1.29h0.31v1.29H37.95z"/>
		<path d="M39.08,18.69h0.27v0.27h-0.27v0.6c0,0.11,0.05,0.16,0.16,0.16c0.04,0,0.09-0.01,0.11-0.01v0.25
			C39.33,19.97,39.27,20,39.16,20c-0.24,0-0.39-0.14-0.39-0.38v-0.65h-0.24v-0.27h0.07c0.14,0,0.2-0.09,0.2-0.2v-0.19h0.28V18.69z"
			/>
		<path d="M40.82,19.61c-0.07,0.23-0.27,0.41-0.58,0.41c-0.35,0-0.66-0.25-0.66-0.69c0-0.41,0.3-0.68,0.63-0.68
			c0.4,0,0.63,0.26,0.63,0.67c0,0.05,0,0.09-0.01,0.1h-0.95c0.01,0.2,0.16,0.34,0.35,0.34c0.19,0,0.28-0.1,0.32-0.23L40.82,19.61z
			 M40.53,19.19c-0.01-0.15-0.11-0.29-0.32-0.29c-0.19,0-0.31,0.15-0.32,0.29H40.53z"/>
		<path d="M41.56,18.69h0.27v0.27h-0.27v0.6c0,0.11,0.05,0.16,0.16,0.16c0.04,0,0.09-0.01,0.11-0.01v0.25
			C41.81,19.97,41.75,20,41.64,20c-0.24,0-0.39-0.14-0.39-0.38v-0.65h-0.24v-0.27h0.07c0.14,0,0.2-0.09,0.2-0.2v-0.19h0.28V18.69z"
			/>
	</g>
</g>
</svg>
